<svg width="134" height="40" viewBox="0 0 134 40" fill="none" xmlns="http://www.w3.org/2000/svg">
<path d="M129.037 39.9997H4.96279C2.24935 40.0279 0.02824 37.8353 0.000266337 35.1016C0.000266337 35.0678 0.000266337 35.034 0.000266337 35.0002V4.99985C-0.0277073 2.26614 2.15144 0.0284512 4.86209 0.000268665C4.89566 0.000268665 4.92923 0.000268665 4.96279 0.000268665H129.037C131.751 -0.0279139 133.972 2.16469 134 4.89839C134 4.93221 134 4.96603 134 4.99985V35.0002C134.028 37.7339 131.849 39.9715 129.138 39.9997C129.104 39.9997 129.071 39.9997 129.037 39.9997Z" fill="black"/>
<path d="M47.0492 10.1995C47.0939 10.9323 46.845 11.6538 46.3554 12.2005C45.1582 13.4152 43.2112 13.4236 42.0027 12.2174C41.4181 11.6312 41.0908 10.8337 41.0936 10.0023C41.0796 8.30568 42.4335 6.91628 44.1175 6.90219C44.1343 6.90219 44.1539 6.90219 44.1707 6.90219C44.5847 6.90783 44.9931 7.00928 45.3624 7.20093C45.7176 7.35029 46.0253 7.59266 46.2547 7.89985L45.7596 8.39868C45.3791 7.91394 44.7833 7.65185 44.1707 7.69976C43.5637 7.67439 42.9762 7.93367 42.5818 8.39868C42.0978 8.82424 41.8405 9.45271 41.888 10.0981C41.8433 10.7435 42.1006 11.3719 42.5818 11.7975C43.0154 12.209 43.5748 12.457 44.1707 12.4964C44.8085 12.5246 45.4239 12.2681 45.8575 11.7975C46.1792 11.4819 46.3582 11.0478 46.3526 10.5969H44.1679V9.79654H47.0464V10.1995H47.0492Z" fill="white" stroke="white" stroke-width="0.2" stroke-miterlimit="10"/>
<path d="M51.6145 7.69976H48.9346V9.59926H51.4159V10.2982H48.9346V12.1977H51.6145V12.9981H48.1402V6.99802H51.6145V7.69976Z" fill="white" stroke="white" stroke-width="0.2" stroke-miterlimit="10"/>
<path d="M54.8902 12.9981H54.0957V7.69974H52.4089V7.00081H56.577V7.69974H54.8902V12.9981Z" fill="white" stroke="white" stroke-width="0.2" stroke-miterlimit="10"/>
<path d="M59.4555 12.9981V6.99802H60.25V12.9981H59.4555Z" fill="white" stroke="white" stroke-width="0.2" stroke-miterlimit="10"/>
<path d="M63.6264 12.9981H62.832V7.69974H61.1451V7.00081H65.2153V7.69974H63.5285V13.0009H63.6264V12.9981Z" fill="white" stroke="white" stroke-width="0.2" stroke-miterlimit="10"/>
<path d="M73.0535 12.1977C71.8562 13.4123 69.9093 13.4208 68.7008 12.2146C68.1161 11.6284 67.7888 10.8308 67.7916 9.99943C67.7916 8.28593 69.1707 6.89935 70.8687 6.89935C72.5667 6.89935 73.9459 8.28593 73.9459 9.99943C73.971 10.8252 73.6465 11.6256 73.0535 12.1977ZM69.2826 11.6988C69.705 12.1272 70.2729 12.378 70.8715 12.3978C71.4786 12.4231 72.066 12.1638 72.4604 11.6988C72.9052 11.2479 73.1542 10.6364 73.1542 9.99943C73.199 9.35405 72.9416 8.72558 72.4604 8.30002C72.038 7.87165 71.4702 7.62083 70.8715 7.6011C70.2645 7.57573 69.6771 7.83501 69.2826 8.30002C68.8379 8.75094 68.5889 9.36251 68.5889 9.99943C68.5413 10.6448 68.7987 11.2733 69.2826 11.6988Z" fill="white" stroke="white" stroke-width="0.2" stroke-miterlimit="10"/>
<path d="M75.0397 12.9981V6.99802H75.932L78.8105 11.6989V6.99802H79.605V12.9981H78.8105L75.7334 8.09713V12.9981H75.0397Z" fill="white" stroke="white" stroke-width="0.2" stroke-miterlimit="10"/>
<path d="M67.5958 21.7994C65.2908 21.7487 63.3802 23.589 63.327 25.9113C63.3243 25.9733 63.3243 26.0353 63.327 26.1001C63.3103 28.4561 65.1929 30.381 67.5315 30.4007C67.5511 30.4007 67.5735 30.4007 67.5958 30.4007C69.9009 30.4515 71.8115 28.6112 71.8646 26.2889C71.8674 26.2269 71.8674 26.1649 71.8646 26.1001C71.9485 23.8089 70.1722 21.884 67.9007 21.7994C67.7972 21.7938 67.6965 21.7938 67.5958 21.7994ZM67.5958 28.5999C66.1692 28.4871 65.1062 27.2302 65.2181 25.7957C65.3188 24.5162 66.3258 23.5017 67.5958 23.4002C68.9246 23.4087 69.9932 24.4993 69.9848 25.838C69.9848 25.8915 69.982 25.9451 69.9792 26.0015C70.0435 27.3711 68.9945 28.5351 67.6378 28.5999C67.621 28.5971 67.6098 28.5971 67.5958 28.5999ZM58.3645 21.7994C56.0595 21.7487 54.1489 23.589 54.0957 25.9113C54.0929 25.9733 54.0929 26.0353 54.0957 26.1001C54.079 28.4561 55.9616 30.381 58.3002 30.4007C58.3198 30.4007 58.3421 30.4007 58.3645 30.4007C60.6696 30.4515 62.5801 28.6112 62.6333 26.2889C62.6361 26.2269 62.6361 26.1649 62.6333 26.1001C62.7172 23.8089 60.9409 21.884 58.6694 21.7994C58.5659 21.7938 58.4652 21.7938 58.3645 21.7994ZM58.3645 28.5999C56.9379 28.4871 55.8749 27.2302 55.9868 25.7957C56.0875 24.5162 57.0945 23.5017 58.3645 23.4002C59.6933 23.4087 60.7619 24.4993 60.7535 25.838C60.7535 25.8915 60.7507 25.9451 60.7479 26.0015C60.8122 27.3711 59.7632 28.5351 58.4065 28.5999C58.3925 28.5971 58.3785 28.5971 58.3645 28.5999ZM47.3457 23.0987V24.8995H51.6145C51.5529 25.7563 51.2033 26.5679 50.6214 27.1992C49.757 28.0729 48.5709 28.5435 47.3457 28.4984C44.7945 28.5238 42.7049 26.4608 42.6797 23.8878C42.6797 23.8229 42.6797 23.7609 42.6825 23.6961C42.6377 21.0921 44.6966 18.9417 47.2814 18.8966C47.3037 18.8966 47.3261 18.8966 47.3485 18.8966C48.5625 18.9079 49.729 19.3701 50.6242 20.1959L51.9138 18.8966C50.7165 17.7299 49.1136 17.0845 47.4464 17.0958C43.821 17.1183 40.8754 20.0437 40.7971 23.6961C40.8754 27.3458 43.8238 30.2711 47.4464 30.2965C49.1752 30.3923 50.8564 29.6934 52.0117 28.397C53.0607 27.2556 53.6286 25.7506 53.6006 24.1978C53.6202 23.8286 53.5866 23.4566 53.4999 23.0987H47.3457ZM92.4113 24.4993C91.9105 22.9239 90.4783 21.8417 88.839 21.7994C86.6319 21.8107 84.85 23.6228 84.8584 25.8464C84.8584 25.931 84.8612 26.0155 84.8668 26.1001C84.8024 28.4111 86.6123 30.3359 88.9062 30.3979C88.9509 30.3979 88.9929 30.4007 89.0376 30.4007C90.4447 30.4148 91.7567 29.6962 92.512 28.5012L91.1217 27.5008C90.6881 28.2448 89.8936 28.7013 89.0376 28.7013C88.1425 28.7464 87.3117 28.2307 86.9536 27.4021L92.6127 25.001L92.4113 24.4993ZM86.6543 25.8972C86.6123 24.6121 87.569 23.5186 88.839 23.3974C89.4936 23.3748 90.1062 23.7215 90.4279 24.2964L86.6543 25.8972ZM81.9883 29.9977H83.8737V17.4988H81.9883V29.9977ZM79.0091 22.6985C78.4105 22.0756 77.588 21.7149 76.7264 21.698C74.4466 21.8051 72.6535 23.6989 72.6563 25.9986C72.6227 28.2842 74.4354 30.164 76.7069 30.1978C76.7124 30.1978 76.7208 30.1978 76.7264 30.1978C77.5656 30.2035 78.3629 29.8399 78.9112 29.1974H79.0119V29.7976C79.1378 31.0461 78.2342 32.1622 76.995 32.289C75.9628 32.3932 74.9949 31.7789 74.6452 30.7981L73.0563 31.497C73.7025 33.0161 75.1879 33.9997 76.8271 33.9968C79.0119 33.9968 80.7966 32.6976 80.7966 29.5975V21.9995H79.0091V22.6985ZM76.8271 28.5971C75.4005 28.4843 74.3375 27.2274 74.4494 25.7929C74.5501 24.5134 75.5571 23.4988 76.8271 23.3974C78.1447 23.4509 79.1685 24.5726 79.1154 25.9C79.1154 25.9338 79.1126 25.9648 79.1098 25.9986C79.2161 27.3232 78.2398 28.4843 76.9251 28.5914C76.8915 28.5942 76.8579 28.5971 76.8271 28.5971ZM101.047 17.4988H96.5793V29.9977H98.4648V25.2969H101.047C103.184 25.2969 104.918 23.5496 104.918 21.3964C104.916 19.2433 103.184 17.4988 101.047 17.4988ZM101.145 23.4988H98.4648V19.1982H101.145C102.314 19.1982 103.276 20.1226 103.329 21.2978C103.282 22.4927 102.331 23.4509 101.145 23.4988ZM112.561 21.698C111.184 21.5881 109.881 22.3434 109.285 23.5975L110.972 24.2964C111.307 23.6877 111.97 23.3354 112.659 23.3974C113.635 23.3241 114.502 24.023 114.645 24.9982V25.0996C114.068 24.7755 113.419 24.6036 112.759 24.6008C110.972 24.6008 109.187 25.6013 109.187 27.4021C109.254 29.0198 110.611 30.2739 112.217 30.2035C112.233 30.2035 112.247 30.2006 112.264 30.2006C113.21 30.2316 114.105 29.7807 114.648 29.0001H114.748V30.0006H116.536V25.2011C116.379 23.1353 114.611 21.5768 112.561 21.698ZM112.362 28.5971C111.766 28.5971 110.874 28.2983 110.874 27.4979C110.874 26.4975 111.965 26.1987 112.86 26.1987C113.445 26.2015 114.024 26.3368 114.547 26.5989C114.387 27.7065 113.473 28.5463 112.362 28.5971ZM122.782 21.9967L120.698 27.3965H120.598L118.416 21.9967H116.429L119.705 29.5975L117.82 33.7967H119.705L124.768 21.9967H122.782ZM106.107 29.9977H107.993V17.4988H106.107V29.9977Z" fill="white"/>
<path d="M10.3226 7.49962C10.0176 7.89699 9.87497 8.39864 9.92533 8.90029V31.001C9.90295 31.514 10.082 32.0184 10.4205 32.4017L10.5212 32.5032L22.8296 20.1028V19.9027L10.3226 7.49962Z" fill="url(#paint0_linear_1_4)"/>
<path d="M26.7991 24.2992L22.7317 20.1987V19.8999L26.7991 15.7994L26.8998 15.9008L31.7644 18.7022C33.1547 19.5025 33.1547 20.8018 31.7644 21.6021L26.7991 24.2992Z" fill="url(#paint1_linear_1_4)"/>
<path d="M26.8997 24.1978L22.7316 19.9986L10.3253 32.4975C10.8205 32.9963 11.517 32.9963 12.4094 32.599L26.8997 24.1978Z" fill="url(#paint2_linear_1_4)"/>
<path d="M26.8998 15.7993L12.4066 7.49953C11.7828 7.01197 10.8988 7.05424 10.3226 7.60098L22.7289 20.0013L26.8998 15.7993Z" fill="url(#paint3_linear_1_4)"/>
<path opacity="0.2" d="M26.7991 24.0991L12.4067 32.3003C11.822 32.7568 11.0052 32.7568 10.4205 32.3003L10.3198 32.4017L10.4205 32.5032C11.0052 32.9597 11.822 32.9597 12.4067 32.5032L26.7991 24.0991Z" fill="black"/>
<path opacity="0.12" d="M10.3227 32.2974C10.0178 31.9001 9.8751 31.3984 9.92545 30.8968V30.9982C9.90307 31.5111 10.0821 32.0156 10.4206 32.3989V32.2974H10.3227Z" fill="black"/>
<path opacity="0.12" d="M31.7644 21.2978L26.8019 24.0991L26.9026 24.2006L31.7672 21.3992C32.3295 21.154 32.7127 20.6158 32.7603 19.9986C32.7547 20.5002 32.3575 20.8976 31.7644 21.2978Z" fill="black"/>
<path opacity="0.25" d="M12.4064 7.59827L31.7614 18.6994C32.3572 19.0996 32.7545 19.4998 32.7545 19.9986C32.7069 19.3814 32.3265 18.8431 31.7614 18.5979L12.4064 7.49963C11.0161 6.69925 9.92514 7.29954 9.92514 8.9003V9.00176C9.92514 7.49963 11.0189 6.79789 12.4064 7.59827Z" fill="white"/>
<defs>
<linearGradient id="paint0_linear_1_4" x1="51.7039" y1="61.4954" x2="31.9429" y2="56.1818" gradientUnits="userSpaceOnUse">
<stop stop-color="#00A0FF"/>
<stop offset="0.007" stop-color="#00A1FF"/>
<stop offset="0.26" stop-color="#00BEFF"/>
<stop offset="0.512" stop-color="#00D2FF"/>
<stop offset="0.76" stop-color="#00DFFF"/>
<stop offset="1" stop-color="#00E3FF"/>
</linearGradient>
<linearGradient id="paint1_linear_1_4" x1="33.5809" y1="20.0517" x2="9.5629" y2="20.0517" gradientUnits="userSpaceOnUse">
<stop stop-color="#FFE000"/>
<stop offset="0.409" stop-color="#FFBD00"/>
<stop offset="0.775" stop-color="#FFA500"/>
<stop offset="1" stop-color="#FF9C00"/>
</linearGradient>
<linearGradient id="paint2_linear_1_4" x1="102.588" y1="112.899" x2="86.5614" y2="86.208" gradientUnits="userSpaceOnUse">
<stop stop-color="#FF3A44"/>
<stop offset="1" stop-color="#C31162"/>
</linearGradient>
<linearGradient id="paint3_linear_1_4" x1="-91.8316" y1="122.942" x2="-84.7181" y2="110.998" gradientUnits="userSpaceOnUse">
<stop stop-color="#32A071"/>
<stop offset="0.068" stop-color="#2DA771"/>
<stop offset="0.476" stop-color="#15CF74"/>
<stop offset="0.801" stop-color="#06E775"/>
<stop offset="1" stop-color="#00F076"/>
</linearGradient>
</defs>
</svg>
